<?xml version="1.0" encoding="utf-8"?>
<!-- Generator: Adobe Illustrator 19.2.1, SVG Export Plug-In . SVG Version: 6.00 Build 0)  -->
<svg version="1.1" id="Layer_1" xmlns="http://www.w3.org/2000/svg" xmlns:xlink="http://www.w3.org/1999/xlink" x="0px" y="0px"
	 viewBox="0 0 300 126" style="enable-background:new 0 0 300 126;" xml:space="preserve">
<style type="text/css">
	.st0{fill:#00759A;}
</style>
<g>
	<g>
		<g>
			<path class="st0" d="M76.1,116.7c0.1,0.2,8.3-11.2,22.4-21c14.1-9.5,26.7-15.2,26.8-14.9c-0.2-0.4-12,6.6-26,16
				C85.4,106.5,76.2,116.8,76.1,116.7z"/>
		</g>
	</g>
	<g>
		<g>
			<path class="st0" d="M85.2,119c0,0.1,6.7-9.4,17.2-18.9c10.5-9.5,20.1-15.8,20.2-15.6c-0.1-0.2-8.9,7.2-19.3,16.6
				C92.9,110.6,85.2,119,85.2,119z"/>
		</g>
	</g>
	<g>
		<g>
			<path class="st0" d="M84.3,130.9c0,0.1,4.8-11.4,15-22.6c10.2-11.1,19.3-19,19.3-19.1c0.1,0.1-8.1,9.1-18.2,20
				C90.3,120.3,84.3,130.9,84.3,130.9z"/>
		</g>
	</g>
	<g>
		<g>
			<path class="st0" d="M95.7,120.7c0,0,3.2-7.2,9.1-14.7c6-7.5,11.3-13,11.2-13.2c0.1,0.1-4.2,6.6-10.1,14
				C100,114.3,95.7,120.7,95.7,120.7z"/>
		</g>
	</g>
	<g>
		<g>
			<path class="st0" d="M75.5,105.3c0,0.1,9.7-9.1,24.4-16.3c14.4-7.6,27.4-10.7,27.4-10.5c-0.1-0.1-12.4,4.3-26.7,11.8
				C86,97.3,75.6,105.4,75.5,105.3z"/>
		</g>
	</g>
	<g>
		<g>
			<path class="st0" d="M82.4,100.9c0,0.1,9.8-7.3,22.9-15c13-7.8,25-11.3,25.1-10.7c-0.2-0.6-11.5,4.3-24.4,12
				C92.9,94.8,82.4,101,82.4,100.9z"/>
		</g>
	</g>
	<g>
		<g>
			<path class="st0" d="M81.9,97.7c0,0.1,9.6-9.1,24.4-15.9c14.8-6.6,27.2-10.4,27.2-10.5c0,0-12,5.3-26.6,11.7
				C92.3,89.8,82,97.8,81.9,97.7z"/>
		</g>
	</g>
	<g>
		<g>
			<path class="st0" d="M74.1,93.9c0,0.1,12.8-8.2,30.2-15.1c17.3-7,32.2-10.1,31.9-10.8c0.3,0.8-14.2,5.2-31.4,12.2
				C87.5,86.9,74.2,94,74.1,93.9z"/>
		</g>
	</g>
	<g>
		<g>
			<path class="st0" d="M79.5,89.6c0,0.1,12.1-7.2,28.2-14c16.1-6.7,30.2-8.8,30.1-9.1c0.1,0.3-13.7,3.7-29.6,10.4
				C92.2,83.6,79.5,89.6,79.5,89.6z"/>
		</g>
	</g>
	<g>
		<g>
			<path class="st0" d="M88.7,82.3c0,0.1,9.9-7.1,24.3-11.5c14.2-4.6,26.3-5.4,26.3-5.6c0.1,0.2-11.8,2.4-25.8,7
				C99.2,76.5,88.7,82.4,88.7,82.3z"/>
		</g>
	</g>
	<g>
		<g>
			<path class="st0" d="M76.1,68.4c0,0.2,16.6-7.4,38.5-11.6c22-3.5,40-4.3,40.1-4.2c0-0.2-18,2-39.8,5.6
				C93.1,62.3,76.1,68.6,76.1,68.4z"/>
		</g>
	</g>
	<g>
		<g>
			<path class="st0" d="M111.6,54.8c0,0,9.8-1.3,22-2.1c12.1-0.8,22-0.7,22-0.7s-9.8,1.3-22,2.1C121.5,54.9,111.6,54.8,111.6,54.8z"
				/>
		</g>
	</g>
	<g>
		<g>
			<path class="st0" d="M92.3,58c0.1,0.2,14.8-4,33.4-7c18.7-2.4,33.9-3.8,33.9-3.8c0,0-15.1,2.8-33.7,5.2
				C107.4,55.4,92.4,58.2,92.3,58z"/>
		</g>
	</g>
	<g>
		<g>
			<path class="st0" d="M88.6,54.3c0,0.4,15.6-7.8,36.8-8.2c20.8-0.3,37.8-1.1,37.7,0.2c0.1-1.3-16.8,1-37.7,1.2
				C104.6,48,88.7,54.7,88.6,54.3z"/>
		</g>
	</g>
	<g>
		<g>
			<path class="st0" d="M102.4,46.3c-0.1,0,12.7-4.4,29.2-4.2c16.3-0.7,29.5,1.3,29.5,1.3c0-0.1-13.2-0.6-29.4,0.1
				C115.3,43.4,102.4,46.3,102.4,46.3z"/>
		</g>
	</g>
	<g>
		<g>
			<path class="st0" d="M103.2,150.5c0.2,0-0.2-13,2.9-28.7c3.4-15.7,9.1-27.4,8.9-27.5c0.2,0.1-4.1,12.3-7.5,27.7
				C104.4,137.6,103.4,150.5,103.2,150.5z"/>
		</g>
	</g>
	<g>
		<g>
			<path class="st0" d="M106.8,145c0.2,0-0.3-13.5,2.8-29.8c3.3-16.4,10.6-28,10.2-28.2c0.4,0.1-5.6,12.4-8.8,28.4
				C107.9,131.6,107.1,145.1,106.8,145z"/>
		</g>
	</g>
	<g>
		<g>
			<path class="st0" d="M110,143.3c0.2,0-0.6-13.5,2.5-29.9c2.8-16.5,9.8-28.4,9.4-28.5c0.4,0.1-5.2,12.5-8,28.8
				C110.9,129.9,110.2,143.4,110,143.3z"/>
		</g>
	</g>
	<g>
		<g>
			<path class="st0" d="M118.5,135c0,0,0-12.1,1.4-27c1.7-14.9,5.2-26.5,5.1-26.6c0.1,0-2.1,11.9-3.7,26.7
				C119.8,123,118.5,135,118.5,135z"/>
		</g>
	</g>
	<g>
		<g>
			<path class="st0" d="M121.5,133.5c0,0,1.5-13.1,3.7-29.3c2.1-16.2,4.6-29.2,4.6-29.2c0,0-1.1,13.2-3.2,29.4
				C124.4,120.6,121.4,133.5,121.5,133.5z"/>
		</g>
	</g>
	<g>
		<g>
			<path class="st0" d="M124.8,131.6c0.2,0,0.7-13.5,2.1-30.2c1.4-16.8,6.4-29.7,6.3-29.7c0.1,0-3.5,13.2-4.9,29.8
				C126.9,118.2,124.9,131.7,124.8,131.6z"/>
		</g>
	</g>
	<g>
		<g>
			<path class="st0" d="M128.2,126.9c-0.1,0,0.5-13.3,2.8-29.5c1.5-16.4,5.4-29.2,5.1-29.2c0.3,0.1-2.2,13.1-3.7,29.4
				C130.1,113.8,128.1,126.9,128.2,126.9z"/>
		</g>
	</g>
	<g>
		<g>
			<path class="st0" d="M139.4,123.6c0,0,3.1-17,8.5-37.4c5.5-20.5,11.4-36.7,11.4-36.7s-3.1,16.9-8.6,37.4
				C145.2,107.4,139.4,123.6,139.4,123.6z"/>
		</g>
	</g>
	<g>
		<g>
			<path class="st0" d="M140.7,119.5c0.1,0.1,1.9-16.8,8.6-36.6c6.2-19.7,13.6-35,13.9-34.9c-0.3-0.1-4.9,16-11.2,35.8
				C145.4,103.4,140.8,119.5,140.7,119.5z"/>
		</g>
	</g>
	<g>
		<g>
			<path class="st0" d="M147.7,117.3c0.1,0,3.6-16,7.7-36c4-19.5,11.1-36.3,10.7-34.1c0.3-2.1-4,15.3-7.9,34.8
				C154.1,101.9,147.8,117.3,147.7,117.3z"/>
		</g>
	</g>
	<g>
		<g>
			<path class="st0" d="M155.5,115.7c0.2,0,1.4-16.4,4.8-36.5c4.1-20,10-35.4,9.9-35.5c0.1,0-3.1,16.2-7.1,36
				C159.7,99.7,155.6,115.8,155.5,115.7z"/>
		</g>
	</g>
	<g>
		<g>
			<path class="st0" d="M159.2,106c-0.1,0,1.5-14.9,6.2-32.7c4.4-17.8,9.7-31.8,9.7-31.8c0,0-2.5,14.7-6.9,32.5
				C163.5,91.8,159.1,106,159.2,106z"/>
		</g>
	</g>
	<g>
		<g>
			<path class="st0" d="M153.7,115.7c0,0,4.6-17.8,11.2-39.4c6.7-21.7,14.5-38.4,14.4-38.4c0.1,0.1-5,17.7-11.7,39.3
				C161,98.8,153.7,115.7,153.7,115.7z"/>
		</g>
	</g>
	<g>
		<g>
			<path class="st0" d="M164.9,113.8c-0.4,0,3-16.9,6.6-37.2c2.4-20.9,8.7-37,8.7-36.9c-0.1,0-3.5,16.6-5.9,37.3
				C170.6,97.8,164.5,113.7,164.9,113.8z"/>
		</g>
	</g>
	<g>
		<g>
			<path class="st0" d="M169.7,106.6c0,0,1.6-16.4,6-36.2c4-19.8,9.1-35.6,10-35.2c-1-0.2-3.2,15.9-7.2,35.8
				C174.1,90.7,169.7,106.5,169.7,106.6z"/>
		</g>
	</g>
	<g>
		<g>
			<path class="st0" d="M177.7,97.6c0.2,0-0.1-14.6,2.8-32.3c2.1-17.8,8-31.5,8.3-31.3c-0.4,0-3.4,14-5.5,31.7
				C180.5,83.3,177.9,97.6,177.7,97.6z"/>
		</g>
	</g>
	<g>
		<g>
			<path class="st0" d="M182.8,74.6c0.1,0-0.5-9.5,1.9-21c2.5-11.6,7.7-19.6,6.7-19.9c1.1,0-1.5,9.5-3.9,20.5
				C185.2,65.4,182.9,74.6,182.8,74.6z"/>
		</g>
	</g>
	<g>
		<g>
			<path class="st0" d="M180.7,115.9c0.3,0.1,1.2-19.4,6.1-42.9c4.1-23.4,7.9-42.6,8.2-42.5c-0.3,0-1.2,19.3-5.4,43
				C184.7,96.9,180.9,115.9,180.7,115.9z"/>
		</g>
	</g>
	<g>
		<g>
			<path class="st0" d="M190.9,102.3c0,0,2-15.8,3.8-35.4c2.2-19.6,4.9-35.3,4.9-35.3c0,0,0.1,16.1-2.1,35.6
				C195.7,86.9,190.8,102.3,190.9,102.3z"/>
		</g>
	</g>
	<g>
		<g>
			<path class="st0" d="M196.9,96.7c0.3,0,0.5-15.1,2.9-33.5c2.4-18.4,5.7-33.2,5.7-33.2c0,0-0.5,15.1-2.9,33.5
				C200.2,82,197.1,96.8,196.9,96.7z"/>
		</g>
	</g>
	<g>
		<g>
			<path class="st0" d="M200.5,114.5c-0.4,0.1-1.4-19.3,2.5-42.6c2.1-23.5,7.1-42.1,7.1-42.1c0.1,0-2.2,18.9-4.2,42.5
				C201.9,95.6,200.1,114.4,200.5,114.5z"/>
		</g>
	</g>
	<g>
		<g>
			<path class="st0" d="M204.8,108.4c-0.6,0.1-2-18,1-39.7c1-22.2,8.4-39,8.2-38.9c0.2,0.1-4.4,17.3-5.3,39.1
				C205.7,90.8,204.2,108.3,204.8,108.4z"/>
		</g>
	</g>
	<g>
		<g>
			<path class="st0" d="M210.6,116.3c-0.2,0.1-1.7-19.5,1.6-43c0.9-23.8,6-42.8,6.2-42.6c-0.3,0-2.5,19-3.4,42.8
				C211.7,97.2,210.4,116.2,210.6,116.3z"/>
		</g>
	</g>
	<g>
		<g>
			<path class="st0" d="M216.9,105.6c0,0-0.2-17.7,1.4-39.3c0.6-21.7,4.7-39.2,5.1-39c-0.3,0.1-1.6,17.3-2.2,39.2
				C219.5,88.2,216.8,105.6,216.9,105.6z"/>
		</g>
	</g>
	<g>
		<g>
			<path class="st0" d="M225.2,116.7c-0.1,0.1-3.4-20.1-0.8-44.7c1.6-24.6,4.6-44.5,4.6-44.5c0,0-0.1,20-1.7,44.7
				C224.6,96.8,225.1,116.6,225.2,116.7z"/>
		</g>
	</g>
	<g>
		<g>
			<path class="st0" d="M226.9,107.6c-0.2,0,1.3-18.2,3.6-40.1c0.5-22.4,6.3-40,6.6-39.8c-0.3,0-3.2,17.7-3.7,40
				C231,90.1,226.7,107.6,226.9,107.6z"/>
		</g>
	</g>
	<g>
		<g>
			<path class="st0" d="M165.7,45.3c0,0-15-2.4-33.3-6.6c-8.8-2-17.5-1.9-23.5-3.1c-6.1-1.1-9.6-2.8-9.6-2.7c0-0.1,3.7,1,9.8,1.3
				c6.1,0.5,14.6-0.3,24.1,1.8C151.4,40.1,165.7,45.4,165.7,45.3z"/>
		</g>
	</g>
	<g>
		<g>
			<path class="st0" d="M174.8,40.4c0,0-16.5-0.7-36.2-5.1c-19.6-4.3-35.8-6.6-35.7-7c-0.1,0.4,16.5-0.1,36.3,4.2
				C158.8,36.9,174.7,40.4,174.8,40.4z"/>
		</g>
	</g>
	<g>
		<g>
			<path class="st0" d="M178.7,39.2c0,0-13.5-1.7-29.8-5.5c-16.2-4.2-29-8.9-29-8.9s13.5,2,29.7,6.1
				C165.8,34.7,178.6,39.2,178.7,39.2z"/>
		</g>
	</g>
	<g>
		<g>
			<path class="st0" d="M186.1,34.9c0-0.2-17.3-1.9-38.1-7.3c-20.6-5.1-37.5-9.5-37.3-10.2c-0.1,0.7,17.1,2.2,38.1,7.4
				C169.3,30.2,186.2,34.7,186.1,34.9z"/>
		</g>
	</g>
	<g>
		<g>
			<path class="st0" d="M190.2,35.7c0,0-13.9-3.9-30.5-10.3c-16.7-6-29.7-12.2-29.7-12.2c0,0,14,3.5,30.7,9.5
				C177.3,29.2,190.2,35.7,190.2,35.7z"/>
		</g>
	</g>
	<g>
		<g>
			<path class="st0" d="M189,33.9c0.3-0.7-12.9-4.8-28.2-12c-15.5-7-27-14.7-27-14.6c0.1-0.1,12.8,5.1,28.2,12
				C177.3,26.5,189.4,33.3,189,33.9z"/>
		</g>
	</g>
	<g>
		<g>
			<path class="st0" d="M196,32c-0.1,0.4-14.6-5.5-31.8-13.8c-17.1-8.7-30.6-16-30.9-15.5c0.1-0.5,15.1,4.3,32.1,12.9
				C182.8,23.9,195.8,32.3,196,32z"/>
		</g>
	</g>
	<g>
		<g>
			<path class="st0" d="M203.5,32.3c0,0.3-13.2-3.6-27.4-12c-14.3-8.1-25.9-14.7-25.9-14.7c0,0,12.9,4.1,27.3,12.2
				C191.7,26.2,203.3,32.5,203.5,32.3z"/>
		</g>
	</g>
	<g>
		<g>
			<path class="st0" d="M241.7,29.9c-0.2,0.6-18.3-3.8-40.7-9.6c-21.7-7.8-39.2-14.2-39.2-14.5c-0.1,0.3,18.4,3.9,40.1,11.8
				C224.1,23.3,241.6,30.5,241.7,29.9z"/>
		</g>
	</g>
	<g>
		<g>
			<path class="st0" d="M239,29.4c0,0.1-17.9-4.6-38.9-12.7C189.4,12.7,180,9.3,172.8,7c-7.1-2.5-10.6-5.8-10.6-5.7
				c0,0,3.9,2.6,11,4.4c7.2,1.5,17.2,4.4,27.8,8.3C222.2,22.1,238.9,29.5,239,29.4z"/>
		</g>
	</g>
	<g>
		<g>
			<path class="st0" d="M246.1,29.3c-0.1,0.3-17.2-6.5-38.3-13.5C186.4,8.5,169.9,1,169.7,1.4c0.1-0.4,17.8,4.5,39,11.7
				C230.2,20.2,246,29.5,246.1,29.3z"/>
		</g>
	</g>
	<g>
		<g>
			<path class="st0" d="M244,26.3c0,0-12.8-3.9-28-10.3c-14.8-6.9-27.2-12-27-12.6c-0.3,0.6,13.1,3,28.1,10
				C232.3,19.8,244.1,26.3,244,26.3z"/>
		</g>
	</g>
	<g>
		<g>
			<path class="st0" d="M254.1,26.6c0,0.2-14.3-3-29.4-12.1c-15.2-8.6-27.9-15-28.2-14.2c0.2-0.8,14.1,3,29.5,11.7
				C241.1,21,253.9,26.8,254.1,26.6z"/>
		</g>
	</g>
	<g>
		<g>
			<path class="st0" d="M257.8,28.3c0.2-0.3-11.2-4.4-24-11.9c-12.7-7.6-22.9-13.7-23-13.6c0-0.1,11.7,3.6,24.4,11.1
				C248,21.3,258,28,257.8,28.3z"/>
		</g>
	</g>
	<g>
		<g>
			<path class="st0" d="M267,30.1c0-0.1-10.1-4.5-22-11.3c-11.8-6.9-20.2-14.3-20.2-14.2c0,0,10,4.9,21.7,11.8
				C258.2,23.1,267.1,30,267,30.1z"/>
		</g>
	</g>
	<g>
		<g>
			<path class="st0" d="M268.2,26.7c0.1,0.1-8.2-1.6-16.5-7.4c-8.2-5.6-14-11.2-14.1-11.2c0-0.1,7.5,3.2,15.6,8.8
				C261.4,22.6,268.2,26.7,268.2,26.7z"/>
		</g>
	</g>
	<g>
		<g>
			<path class="st0" d="M81.6,62c0,0.1,15.3-4,34.6-5.5c19.3-1.5,34.9-2.2,34.9-2.1c0-0.1-15.4,3.5-34.7,4.9
				C97.2,60.9,81.6,62.2,81.6,62z"/>
		</g>
	</g>
	<g>
		<g>
			<path class="st0" d="M87.5,77c-0.1,0.1,11.7-6.9,27.9-9.9c15.9-3,28.7-6.4,28.9-5.7c-0.2-0.7-12.2,5.5-28.3,8.5
				C100.1,72.9,87.6,77.1,87.5,77z"/>
		</g>
	</g>
	<g>
		<g>
			<path class="st0" d="M117,130.3c0,0,6.5-18.8,17.8-40.5c11.2-20.8,20.8-41,21.3-36.8c-0.6-4.1-7.6,17.2-18.8,38.1
				C126.1,112.7,117,130.2,117,130.3z"/>
		</g>
	</g>
	<g>
		<g>
			<path class="st0" d="M113.6,111.6c0,0,6.9-13.5,16.9-29.2c9.2-16.1,19.8-27.5,20.4-26.8c-0.8-0.4-8.7,12-18,28.4
				C122.9,99.6,113.5,111.6,113.6,111.6z"/>
		</g>
	</g>
	<g>
		<g>
			<path class="st0" d="M115.7,118.3c-0.2-0.1,7.4-14.3,17-31.5c8.5-17.7,17.6-31.3,18-30.9c-0.4-0.1-6.9,14.3-15.5,32.3
				C125.5,105.6,115.6,118.2,115.7,118.3z"/>
		</g>
	</g>
	<g>
		<g>
			<path class="st0" d="M221.9,112.1c-0.1,0,5.1-18.4,8-41.6c3.6-23.5,11.3-41.1,10.9-41.2c0.4,0.1-4.6,18.6-8.1,41.6
				C229.7,94.5,221.8,112.2,221.9,112.1z"/>
		</g>
	</g>
	<g>
		<g>
			<path class="st0" d="M227.3,104.7c-0.1,0,3-17.3,7.5-38.5c4.4-21.2,9.5-38.1,9.5-38.1c0,0-2.2,17.5-6.7,38.7
				C233.1,88,227.2,104.7,227.3,104.7z"/>
		</g>
	</g>
	<g>
		<g>
			<path class="st0" d="M235.8,89.2c0,0,1.6-14.1,5.4-31.2c4.1-17,8.8-30.5,8.8-30.5c0,0-1.9,14.1-6,31.1
				C240.3,75.6,235.8,89.2,235.8,89.2z"/>
		</g>
	</g>
	<g>
		<g>
			<path class="st0" d="M245.7,63c-0.1,0,1.3-8.5,3.7-18.5c2.4-10.1,4.7-18.2,4.8-18.2c-0.1,0,0.4,8.6-2,18.9
				C249.7,55.4,245.7,63,245.7,63z"/>
		</g>
	</g>
	<g>
		<g>
			<path class="st0" d="M240.8,100.4c0,0,2.7-16.7,7.7-36.9c5.1-20,10.3-36.7,10.6-35.7c-0.3-1-2.8,16.4-7.8,36.4
				C246.2,84.4,240.8,100.4,240.8,100.4z"/>
		</g>
	</g>
	<g>
		<g>
			<path class="st0" d="M250.1,91.6c0.7,0,1.9-14.2,4.4-32.3c4.3-17.6,8.5-31.5,7.7-31.6c0.8,0-0.7,14.8-4.9,32.2
				C254.9,77.5,250.8,91.9,250.1,91.6z"/>
		</g>
	</g>
	<g>
		<g>
			<path class="st0" d="M253.8,94.1c0,0,1.5-14.9,5.1-32.9c3.6-18,7.9-32.3,7.9-32.3s-1.5,14.9-5.1,32.9
				C258.1,79.7,253.8,94.1,253.8,94.1z"/>
		</g>
	</g>
	<g>
		<g>
			<path class="st0" d="M264.7,58.4c0.1,0-0.1-7,1.2-15.4c1.4-8.6,5.5-14.7,5.5-14.6c0,0.1-1.3,6.8-2.7,15.1
				C267.4,51.9,264.7,58.5,264.7,58.4z"/>
		</g>
	</g>
	<g>
		<g>
			<path class="st0" d="M264.5,72c0,0,0.4-9.8,2.9-21.5c2.5-11.6,4.6-21.1,4.7-21.1c-0.1-0.1,0.6,9.9-1.9,21.7
				C267.6,62.8,264.5,72,264.5,72z"/>
		</g>
	</g>
	<g>
		<g>
			<path class="st0" d="M272.3,81.6c0-0.1,1.9-11.3,1.5-25.4c-0.3-14,1.3-25.7,1.6-25.6c-0.2,0.1,1,11.4,1.3,25.6
				C277,70.6,272.2,81.7,272.3,81.6z"/>
		</g>
	</g>
	<g>
		<g>
			<path class="st0" d="M280.8,82c0,0,0.3-11.7-0.5-26c-0.8-14.3-0.7-26.1-0.6-26.1c-0.1,0,2.7,11.5,3.5,25.9
				C284,70.5,280.8,82.1,280.8,82z"/>
		</g>
	</g>
	<g>
		<g>
			<path class="st0" d="M291.2,83.9c-0.1,0-1.7-12-3.1-26.7c-1.7-14.7-3.5-26.6-3.4-26.6c-0.2,0,4.5,11.4,6.2,26.3
				C292.4,71.8,291.1,83.9,291.2,83.9z"/>
		</g>
	</g>
	<g>
		<g>
			<path class="st0" d="M251.2,11c0.1-0.1,7.9,3.6,17,8.8c9.4,5.2,15.8,11,15.4,11.4c0.3-0.5-7.6-3.9-16.9-9
				C257.5,17,251.2,10.9,251.2,11z"/>
		</g>
	</g>
	<g>
		<g>
			<path class="st0" d="M248.5,4.4c0-0.1,11.1,6.1,24.4,14.1c6.7,4,12.8,7,17.5,9.3c4.8,2.3,6.4,5.5,6.1,5.5
				c0.2-0.2-1.7-2.7-6.7-4.2c-4.8-1.5-11.6-4.1-18.3-8.1C258,12.8,248.6,4.3,248.5,4.4z"/>
		</g>
	</g>
	<g>
		<g>
			<path class="st0" d="M245.9-3.6c0.1-0.1,12.5,7.9,27.7,17.6c7.7,4.8,14.6,8.9,19.8,12c5.2,3.2,7.1,6.7,7,6.7c0,0-2.3-3-7.7-5.4
				c-5.4-2.4-12.9-6-20.6-10.8C256.7,6.6,245.9-3.7,245.9-3.6z"/>
		</g>
	</g>
	<g>
		<g>
			<path class="st0" d="M88.2,68.7c-0.1,0,13.6-5,31.2-7c8.7-1.4,16.8-1.8,22.3-2.8c5.7-0.9,8.6-3.2,8.6-3.2c0-0.1-2.5,2.9-8.2,4.5
				c-5.7,1.7-13.5,2.9-22.3,4.3C102.3,66.5,88.3,68.6,88.2,68.7z"/>
		</g>
	</g>
	<g>
		<g>
			<path class="st0" d="M75,119.1c-0.3-0.2,9.7-10.8,24.5-20.2c13.7-10.5,25.4-19.1,25.9-18.3c-0.6-0.6-10.1,9.8-24.2,20.6
				C86.3,110.6,74.9,118.8,75,119.1z"/>
		</g>
	</g>
	<g>
		<g>
			<path class="st0" d="M263.1,0.1c0.1-0.1,8.7,6.5,18.9,15.2c4.9,4.7,9.5,8,13.1,10.9c3.6,2.8,4.5,5.7,4.3,5.7
				c0.1-0.1-1.3-2.4-5.2-4.5c-3.7-2-9.3-5.3-14.1-9.9C269.9,8.8,263.1,0,263.1,0.1z"/>
		</g>
	</g>
	<g>
		<g>
			<path class="st0" d="M300.3,37.2l2.8-5.9c-23.7-8-47-6.5-70.3-6.3c-23.2,0-47.4,5.6-67.2,18.4c-40,25.4-65.5,67.4-81.8,110.4
				c17.2-42.6,43.8-83.7,83.5-107.6c19.8-12,42.6-16.8,65.7-16.3C255.6,30.1,280.1,29.7,300.3,37.2z"/>
		</g>
	</g>
</g>
</svg>
